<svg width="144" height="48" viewBox="0 0 144 48" fill="none" xmlns="http://www.w3.org/2000/svg">
<path d="M33.1086 22.6151C33.1215 21.6078 33.3875 20.6202 33.8817 19.7441C34.3758 18.868 35.0823 18.132 35.9352 17.6044C35.3933 16.8258 34.6785 16.1851 33.8476 15.7331C33.0166 15.2811 32.0923 15.0302 31.1481 15.0005C29.134 14.7878 27.1814 16.2132 26.1549 16.2132C25.1088 16.2132 23.5285 15.0216 21.8268 15.0569C20.7261 15.0927 19.6534 15.4147 18.7132 15.9916C17.773 16.5686 16.9974 17.3807 16.4619 18.3489C14.1422 22.3897 15.8725 28.3283 18.0946 31.5947C19.2062 33.1941 20.5055 34.9807 22.2057 34.9173C23.8693 34.8479 24.4908 33.8499 26.4989 33.8499C28.4885 33.8499 29.0715 34.9173 30.8061 34.877C32.5913 34.8479 33.7161 33.2706 34.7888 31.656C35.5876 30.5163 36.2023 29.2567 36.61 27.9238C35.5729 27.4825 34.6878 26.7437 34.0652 25.7997C33.4425 24.8556 33.1098 23.7481 33.1086 22.6151ZM29.8322 12.8524C30.8056 11.6767 31.2852 10.1655 31.169 8.63983C29.682 8.79701 28.3083 9.51214 27.3218 10.6427C26.8395 11.195 26.4701 11.8376 26.2347 12.5336C25.9993 13.2296 25.9025 13.9655 25.95 14.6992C26.6938 14.7069 27.4297 14.5447 28.1022 14.2248C28.7747 13.9049 29.3663 13.4356 29.8324 12.8523L29.8322 12.8524ZM53.0685 31.029H47.6089L46.2979 34.924H43.9853L49.1566 20.5131H51.5591L56.7303 34.924H54.3785L53.0685 31.029ZM48.1743 29.2315H52.5019L50.3686 22.9101H50.3088L48.1743 29.2315ZM67.8983 29.6713C67.8983 32.9362 66.1614 35.0339 63.5404 35.0339C62.8765 35.0689 62.2161 34.915 61.6351 34.5899C61.054 34.2648 60.5757 33.7816 60.2548 33.1957H60.2052V38.3998H58.0616V24.4173H60.1365V26.1649H60.1759C60.5115 25.5818 60.9979 25.1011 61.5834 24.774C62.1689 24.4469 62.8316 24.2857 63.501 24.3074C66.1513 24.3074 67.8983 26.4153 67.8983 29.6712V29.6713ZM65.6951 29.6713C65.6951 27.5441 64.6026 26.1456 62.9356 26.1456C61.2977 26.1456 60.1962 27.5735 60.1962 29.6712C60.1962 31.7883 61.2977 33.2061 62.9356 33.2061C64.6026 33.2061 65.6951 31.8178 65.6951 29.6712V29.6713ZM79.3924 29.6713C79.3924 32.9362 77.655 35.0339 75.0339 35.0339C74.37 35.0689 73.7096 34.915 73.1286 34.5899C72.5475 34.2648 72.0692 33.7816 71.7483 33.1957H71.6987V38.3998H69.5552V24.4173H71.63V26.1649H71.6694C72.005 25.5818 72.4914 25.1011 73.0769 24.774C73.6624 24.4469 74.3251 24.2857 74.9945 24.3074C77.6449 24.3074 79.3924 26.4153 79.3924 29.6712V29.6713ZM77.1887 29.6713C77.1887 27.5441 76.0961 26.1456 74.4291 26.1456C72.7912 26.1456 71.6897 27.5735 71.6897 29.6712C71.6897 31.7883 72.7912 33.2061 74.4291 33.2061C76.0961 33.2061 77.1887 31.8178 77.1887 29.6712V29.6713ZM86.9876 30.9089C87.1465 32.3379 88.5263 33.2763 90.4118 33.2763C92.2185 33.2763 93.5183 32.3379 93.5183 31.0493C93.5183 29.9307 92.7344 29.261 90.8782 28.802L89.0219 28.3521C86.3918 27.7129 85.1708 26.4753 85.1708 24.4671C85.1708 21.9806 87.3244 20.2728 90.3814 20.2728C93.4091 20.2728 95.4839 21.9806 95.5538 24.4671H93.39C93.2605 23.029 92.0788 22.1608 90.3521 22.1608C88.6254 22.1608 87.4438 23.0392 87.4438 24.3175C87.4438 25.3364 88.1985 25.9359 90.0446 26.3948L91.6226 26.7847C94.5614 27.4839 95.7812 28.6717 95.7812 30.7795C95.7812 33.4756 93.6479 35.1643 90.2529 35.1643C87.0764 35.1643 84.9319 33.5152 84.7934 30.9087L86.9876 30.9089ZM100.41 21.9309V24.4173H102.395V26.1252H100.41V31.9174C100.41 32.8173 100.807 33.2366 101.68 33.2366C101.916 33.2324 102.151 33.2158 102.385 33.1867V34.8845C101.993 34.9582 101.594 34.9916 101.195 34.984C99.0804 34.984 98.2559 34.1852 98.2559 32.1474V26.1252H96.7375V24.4173H98.2559V21.9309H100.41ZM103.544 29.6713C103.544 26.3654 105.479 24.2881 108.497 24.2881C111.525 24.2881 113.451 26.3654 113.451 29.6713C113.451 32.9861 111.535 35.0544 108.497 35.0544C105.46 35.0544 103.544 32.9861 103.544 29.6713ZM111.267 29.6713C111.267 27.4036 110.234 26.0651 108.497 26.0651C106.76 26.0651 105.727 27.4137 105.727 29.6713C105.727 31.9481 106.76 33.2763 108.497 33.2763C110.234 33.2763 111.267 31.9481 111.267 29.6713ZM115.218 24.4173H117.262V26.2056H117.312C117.45 25.6471 117.775 25.1535 118.233 24.8078C118.69 24.4621 119.252 24.2854 119.824 24.3074C120.071 24.3065 120.317 24.3335 120.558 24.3878V26.4051C120.246 26.3092 119.921 26.2652 119.595 26.2748C119.284 26.2621 118.973 26.3173 118.685 26.4367C118.397 26.5561 118.138 26.7368 117.926 26.9665C117.713 27.1961 117.553 27.4693 117.456 27.7671C117.358 28.065 117.326 28.3805 117.362 28.6921V34.924H115.218V24.4173ZM130.441 31.8381C130.153 33.7454 128.306 35.0544 125.945 35.0544C122.907 35.0544 121.021 33.0066 121.021 29.7211C121.021 26.4255 122.917 24.2881 125.854 24.2881C128.743 24.2881 130.56 26.285 130.56 29.4707V30.2095H123.185V30.3399C123.151 30.7266 123.199 31.1161 123.326 31.4826C123.453 31.8492 123.656 32.1843 123.922 32.4658C124.188 32.7473 124.51 32.9687 124.867 33.1153C125.224 33.2618 125.609 33.3302 125.994 33.316C126.501 33.3637 127.009 33.2457 127.443 32.9794C127.878 32.7131 128.215 32.3128 128.406 31.8381H130.441ZM123.195 28.7023H128.416C128.435 28.3546 128.383 28.0067 128.262 27.6803C128.141 27.354 127.955 27.0563 127.714 26.8059C127.474 26.5555 127.184 26.3578 126.864 26.2252C126.544 26.0927 126.2 26.0281 125.854 26.0356C125.505 26.0335 125.159 26.101 124.836 26.2341C124.513 26.3673 124.22 26.5635 123.972 26.8114C123.725 27.0593 123.529 27.3541 123.396 27.6786C123.262 28.0032 123.194 28.3511 123.195 28.7023ZM47.9063 9.66582C48.3557 9.63337 48.8066 9.70167 49.2266 9.86581C49.6466 10.0299 50.0251 10.2858 50.3349 10.615C50.6447 10.9441 50.878 11.3384 51.018 11.7692C51.1581 12.2001 51.2013 12.6569 51.1446 13.1066C51.1446 15.3187 49.9562 16.5904 47.9063 16.5904H45.4203V9.66571L47.9063 9.66582ZM46.4893 15.611H47.7869C48.108 15.6303 48.4294 15.5773 48.7276 15.4559C49.0257 15.3345 49.2933 15.1477 49.5107 14.9092C49.7281 14.6706 49.8899 14.3863 49.9843 14.0769C50.0787 13.7675 50.1034 13.4408 50.0565 13.1206C50.1 12.8017 50.0728 12.477 49.977 12.1699C49.8811 11.8627 49.7189 11.5807 49.502 11.3441C49.2851 11.1074 49.0188 10.922 48.7223 10.801C48.4258 10.68 48.1064 10.6265 47.7869 10.6443H46.4893V15.611ZM52.3521 13.9752C52.3195 13.6318 52.3585 13.2853 52.4667 12.958C52.575 12.6306 52.75 12.3296 52.9806 12.0744C53.2112 11.8191 53.4923 11.6151 53.8059 11.4755C54.1194 11.3359 54.4585 11.2638 54.8014 11.2638C55.1443 11.2638 55.4833 11.3359 55.7969 11.4755C56.1105 11.6151 56.3916 11.8191 56.6222 12.0744C56.8528 12.3296 57.0278 12.6306 57.136 12.958C57.2443 13.2853 57.2833 13.6318 57.2506 13.9752C57.284 14.319 57.2455 14.666 57.1376 14.994C57.0297 15.3219 56.8548 15.6235 56.6241 15.8794C56.3934 16.1353 56.1121 16.3397 55.7982 16.4796C55.4843 16.6196 55.1447 16.6919 54.8014 16.6919C54.458 16.6919 54.1185 16.6196 53.8046 16.4796C53.4907 16.3397 53.2093 16.1353 52.9787 15.8794C52.748 15.6235 52.5731 15.3219 52.4652 14.994C52.3573 14.666 52.3187 14.319 52.3521 13.9752ZM56.1964 13.9752C56.1964 12.8424 55.6907 12.18 54.8031 12.18C53.9121 12.18 53.4109 12.8424 53.4109 13.9752C53.4109 15.117 53.9122 15.7743 54.8031 15.7743C55.6907 15.7743 56.1964 15.1125 56.1964 13.9752ZM63.7623 16.5902H62.6989L61.6255 12.7416H61.5444L60.4756 16.5902H59.4224L57.9908 11.3645H59.0304L59.9608 15.352H60.0374L61.1052 11.3645H62.0885L63.1563 15.352H63.2374L64.1633 11.3645H65.1883L63.7623 16.5902ZM66.3923 11.3647H67.3791V12.1948H67.4557C67.5856 11.8966 67.8048 11.6466 68.0826 11.4797C68.3604 11.3128 68.6831 11.2373 69.0056 11.2637C69.2583 11.2446 69.5121 11.2829 69.7481 11.3759C69.984 11.4688 70.1962 11.614 70.3689 11.8007C70.5415 11.9873 70.6702 12.2107 70.7454 12.4542C70.8206 12.6977 70.8404 12.9551 70.8033 13.2073V16.5901H69.7783V13.4663C69.7783 12.6266 69.4156 12.2089 68.6575 12.2089C68.486 12.2009 68.3147 12.2303 68.1555 12.2951C67.9962 12.3599 67.8528 12.4585 67.735 12.5843C67.6172 12.7101 67.5279 12.86 67.473 13.0238C67.4182 13.1876 67.3992 13.3613 67.4174 13.5332V16.5902H66.3923V11.3647ZM72.4366 9.32464H73.4615V16.5902H72.4366V9.32464ZM74.8864 13.9752C74.8537 13.6317 74.8928 13.2852 75.001 12.9578C75.1093 12.6304 75.2843 12.3294 75.515 12.0741C75.7456 11.8188 76.0268 11.6148 76.3404 11.4752C76.654 11.3356 76.9931 11.2635 77.336 11.2635C77.6789 11.2635 78.0181 11.3356 78.3317 11.4752C78.6453 11.6148 78.9264 11.8188 79.157 12.0741C79.3877 12.3294 79.5628 12.6304 79.671 12.9578C79.7793 13.2852 79.8183 13.6317 79.7856 13.9752C79.8188 14.319 79.7802 14.6659 79.6722 14.9937C79.5642 15.3216 79.3892 15.6231 79.1585 15.8788C78.9278 16.1346 78.6465 16.3389 78.3326 16.4788C78.0188 16.6187 77.6793 16.6909 77.336 16.6909C76.9927 16.6909 76.6533 16.6187 76.3394 16.4788C76.0255 16.3389 75.7442 16.1346 75.5135 15.8788C75.2828 15.6231 75.1079 15.3216 74.9999 14.9937C74.8919 14.6659 74.8532 14.319 74.8864 13.9752ZM78.7307 13.9752C78.7307 12.8424 78.2249 12.18 77.3374 12.18C76.4464 12.18 75.9452 12.8424 75.9452 13.9752C75.9452 15.117 76.4465 15.7743 77.3374 15.7743C78.2249 15.7743 78.7307 15.1125 78.7307 13.9752ZM80.8646 15.1125C80.8646 14.1718 81.5607 13.6295 82.7964 13.5524L84.2032 13.4708V13.0198C84.2032 12.4678 83.8406 12.1562 83.14 12.1562C82.5678 12.1562 82.1712 12.3676 82.0575 12.7371H81.0651C81.1698 11.8394 82.0091 11.2638 83.1873 11.2638C84.4893 11.2638 85.2237 11.916 85.2237 13.0198V16.5902H84.237V15.8559H84.1559C83.9913 16.1193 83.7602 16.334 83.4861 16.4782C83.212 16.6223 82.9048 16.6907 82.5959 16.6764C82.3779 16.6992 82.1575 16.6758 81.949 16.6076C81.7405 16.5395 81.5485 16.4282 81.3854 16.2809C81.2223 16.1335 81.0917 15.9534 81.002 15.7522C80.9123 15.5509 80.8655 15.333 80.8646 15.1125ZM84.2032 14.6659V14.229L82.9349 14.3106C82.2197 14.3587 81.8952 14.6036 81.8952 15.0642C81.8952 15.5345 82.3008 15.8083 82.8583 15.8083C83.0217 15.8249 83.1867 15.8084 83.3436 15.7595C83.5005 15.7107 83.646 15.6306 83.7715 15.524C83.8969 15.4174 83.9998 15.2865 84.074 15.1391C84.1482 14.9917 84.1921 14.8308 84.2032 14.6659ZM86.5709 13.9752C86.5709 12.3239 87.4145 11.278 88.7267 11.278C89.0513 11.2629 89.3735 11.3411 89.6555 11.5035C89.9376 11.6658 90.1679 11.9056 90.3195 12.1948H90.3961V9.32452H91.421V16.5901H90.4389V15.7644H90.3578C90.1945 16.0517 89.9562 16.2884 89.6687 16.4492C89.3812 16.6099 89.0555 16.6884 88.7269 16.6762C87.4055 16.6762 86.5709 15.6302 86.5709 13.9751V13.9752ZM87.6297 13.9752C87.6297 15.0835 88.149 15.7505 89.0173 15.7505C89.8812 15.7505 90.4152 15.0739 90.4152 13.9796C90.4152 12.8906 89.8757 12.2044 89.0173 12.2044C88.1545 12.2044 87.6297 12.8759 87.6297 13.9752ZM95.6619 13.9752C95.6292 13.6318 95.6682 13.2853 95.7765 12.958C95.8847 12.6306 96.0597 12.3296 96.2903 12.0744C96.521 11.8191 96.802 11.6151 97.1156 11.4755C97.4292 11.3359 97.7682 11.2638 98.1111 11.2638C98.454 11.2638 98.7931 11.3359 99.1066 11.4755C99.4202 11.6151 99.7013 11.8191 99.9319 12.0744C100.163 12.3296 100.338 12.6306 100.446 12.958C100.554 13.2853 100.593 13.6318 100.56 13.9752C100.594 14.319 100.555 14.666 100.447 14.994C100.339 15.3219 100.165 15.6235 99.9338 15.8794C99.7032 16.1353 99.4218 16.3397 99.1079 16.4796C98.794 16.6196 98.4545 16.6919 98.1111 16.6919C97.7678 16.6919 97.4282 16.6196 97.1143 16.4796C96.8004 16.3397 96.5191 16.1353 96.2884 15.8794C96.0577 15.6235 95.8828 15.3219 95.7749 14.994C95.667 14.666 95.6285 14.319 95.6619 13.9752ZM99.5062 13.9752C99.5062 12.8424 99.0004 12.18 98.1129 12.18C97.2218 12.18 96.7207 12.8424 96.7207 13.9752C96.7207 15.117 97.222 15.7743 98.1129 15.7743C99.0004 15.7743 99.5062 15.1125 99.5062 13.9752ZM101.936 11.3647H102.922V12.1948H102.999C103.129 11.8966 103.348 11.6466 103.626 11.4797C103.904 11.3128 104.226 11.2373 104.549 11.2637C104.802 11.2446 105.055 11.2829 105.291 11.3759C105.527 11.4688 105.74 11.614 105.912 11.8007C106.085 11.9873 106.214 12.2107 106.289 12.4542C106.364 12.6977 106.384 12.9551 106.347 13.2073V16.5901H105.322V13.4663C105.322 12.6266 104.959 12.2089 104.201 12.2089C104.029 12.2009 103.858 12.2303 103.699 12.2951C103.54 12.3599 103.396 12.4585 103.278 12.5843C103.161 12.7101 103.071 12.86 103.016 13.0238C102.962 13.1876 102.943 13.3613 102.961 13.5332V16.5902H101.936L101.936 11.3647ZM112.139 10.0636V11.3885H113.264V12.2571H112.139V14.9441C112.139 15.4915 112.363 15.7312 112.873 15.7312C113.004 15.7308 113.134 15.7228 113.264 15.7073V16.5665C113.08 16.5996 112.893 16.6172 112.706 16.6191C111.566 16.6191 111.112 16.2156 111.112 15.2082V12.2571H110.288V11.3883H111.112V10.0638L112.139 10.0636ZM114.664 9.32464H115.68V12.2044H115.761C115.897 11.9034 116.122 11.6521 116.406 11.4846C116.689 11.317 117.017 11.2415 117.345 11.2682C117.596 11.2545 117.847 11.2967 118.081 11.3919C118.314 11.4871 118.524 11.633 118.694 11.8191C118.865 12.0051 118.993 12.2269 119.069 12.4684C119.145 12.71 119.167 12.9654 119.133 13.2165V16.5902H118.107V13.4708C118.107 12.6361 117.721 12.2135 116.997 12.2135C116.82 12.1989 116.643 12.2233 116.477 12.2849C116.312 12.3464 116.161 12.4437 116.037 12.5699C115.912 12.6961 115.816 12.8481 115.756 13.0154C115.696 13.1827 115.673 13.3611 115.689 13.5383V16.5902H114.664V9.32464ZM125.11 15.1792C124.971 15.6568 124.669 16.07 124.258 16.3463C123.846 16.6227 123.351 16.7448 122.859 16.6911C122.517 16.7002 122.177 16.6342 121.863 16.4979C121.549 16.3615 121.267 16.1579 121.039 15.9013C120.811 15.6446 120.641 15.3411 120.541 15.0117C120.441 14.6824 120.413 14.335 120.46 13.9939C120.415 13.6517 120.443 13.3036 120.542 12.9732C120.642 12.6428 120.811 12.3379 121.038 12.079C121.265 11.8201 121.545 11.6133 121.859 11.4727C122.172 11.332 122.512 11.2607 122.855 11.2637C124.3 11.2637 125.172 12.2571 125.172 13.898V14.2579H121.504V14.3157C121.488 14.5074 121.512 14.7005 121.575 14.8824C121.637 15.0643 121.737 15.2311 121.867 15.372C121.997 15.5129 122.155 15.625 122.331 15.7009C122.507 15.7767 122.696 15.8148 122.888 15.8127C123.133 15.8423 123.381 15.7979 123.601 15.6851C123.821 15.5723 124.003 15.3962 124.123 15.1792H125.11ZM121.504 13.4952H124.128C124.141 13.3198 124.117 13.1437 124.058 12.9781C123.999 12.8124 123.907 12.661 123.786 12.5335C123.666 12.406 123.52 12.3053 123.359 12.2378C123.198 12.1703 123.024 12.1375 122.849 12.1415C122.672 12.1393 122.496 12.1727 122.332 12.24C122.168 12.3072 122.018 12.4069 121.893 12.533C121.768 12.6592 121.669 12.8093 121.602 12.9746C121.535 13.1398 121.502 13.3168 121.504 13.4952Z" fill="white"/>
<rect x="0.5" y="0.5" width="143" height="47" rx="3.5" stroke="white"/>
</svg>
