<svg width="33" height="32" viewBox="0 0 33 32" fill="none" xmlns="http://www.w3.org/2000/svg">
<path d="M0.0467131 16.0023C0.0467131 13.5665 -0.0750038 11.1231 0.0745122 8.6963C0.307426 4.92083 2.30523 2.27538 5.73583 0.72086C6.91017 0.188914 8.16716 0.00258794 9.45495 0.00333927C13.827 0.00333927 18.199 -0.00417409 22.5718 0.00333927C27.1121 0.0146093 30.7861 2.91025 31.7832 7.28378C31.9362 8.00387 32.01 8.73854 32.0033 9.47468C32.0228 13.8219 32.0254 18.1691 32.0108 22.5164C32.0018 26.7877 29.5104 30.2551 25.5253 31.5647C24.5688 31.8788 23.5801 31.996 22.5755 31.996C18.2035 31.996 13.8307 32.005 9.45871 31.996C5.06038 31.984 1.43443 29.2476 0.341988 25.0739C0.123349 24.2399 0.0497182 23.3504 0.0324375 22.4848C-0.0103887 20.324 0.0181619 18.1624 0.0181619 16.0015L0.0467131 16.0023ZM3.22937 15.9632C3.22937 18.2368 3.22036 20.5096 3.23614 22.7824C3.22872 23.306 3.27911 23.8288 3.3864 24.3414C4.02279 27.0402 6.29182 28.7848 9.15742 28.7848C13.7286 28.7913 18.2997 28.7898 22.8708 28.7803C23.3695 28.785 23.867 28.7331 24.354 28.6255C27.049 27.9854 28.7928 25.7366 28.7996 22.8936C28.8101 18.2979 28.8101 13.7017 28.7996 9.10502C28.8046 8.61877 28.7542 8.13353 28.6493 7.6587C28.0092 4.95389 25.7484 3.21906 22.8798 3.2153C18.3087 3.20929 13.7376 3.21104 9.16644 3.22056C8.6677 3.21397 8.16984 3.26438 7.68255 3.37083C4.99502 4.00495 3.24966 6.26272 3.23839 9.10277C3.22186 11.3921 3.22937 13.6777 3.22937 15.9632Z" fill="#FAFAFA"/>
<path d="M16.0091 7.99219C20.4111 7.99219 24.0213 11.5918 24.0251 15.9947C24.0288 20.3975 20.4232 24.0077 16.0218 24.0114C11.6205 24.0152 8.00958 20.405 8.00733 16.0074C8.00507 11.6099 11.6062 7.99594 16.0091 7.99219ZM16.0091 11.2034C13.3794 11.2034 11.2193 13.3718 11.2163 15.9969C11.2133 18.6221 13.3771 20.7912 16.0008 20.8002C18.6365 20.8085 20.8206 18.6213 20.8093 15.9864C20.8056 13.362 18.6335 11.2034 16.0106 11.2034H16.0091Z" fill="#FAFAFA"/>
<path d="M26.4226 7.60404C26.4158 8.13373 26.2034 8.64005 25.8302 9.01595C25.4569 9.39186 24.9521 9.60789 24.4225 9.61838C23.8864 9.61385 23.3737 9.39847 22.9952 9.01884C22.6167 8.63921 22.4028 8.12585 22.3999 7.58977C22.4114 7.0603 22.6284 6.55607 23.0051 6.18377C23.3817 5.81147 23.8884 5.60031 24.418 5.59497C24.9477 5.60352 25.4533 5.81807 25.8276 6.19313C26.2018 6.5682 26.4152 7.07427 26.4226 7.60404Z" fill="#FAFAFA"/>
</svg>
