<svg width="229" height="140" viewBox="0 0 229 140" fill="none" xmlns="http://www.w3.org/2000/svg">
<path d="M101.939 71.9794C101.362 71.7388 100.451 70.7327 101.939 67.8894L105.493 60.5625C105.493 60.3438 105.337 60.0813 105.182 60.2563L102.073 63.3402C100.425 65.4129 98.94 67.6064 97.6311 69.9016L93.8557 76.0475C93.9458 76.0444 94.0351 76.0648 94.1146 76.1067C94.1941 76.1485 94.2609 76.2104 94.3082 76.2859C94.3556 76.3614 94.3818 76.4479 94.3843 76.5367C94.3867 76.6254 94.3652 76.7132 94.3221 76.7912L90.8576 82.5215C90.0137 83.9213 91.5461 84.9274 91.7459 84.7086C97.1647 76.0913 100.318 76.7693 100.318 76.7693L102.139 72.6356C102.188 72.5853 102.223 72.5231 102.239 72.4554C102.256 72.3876 102.254 72.3169 102.233 72.2501C102.213 72.1834 102.175 72.1232 102.124 72.0757C102.072 72.0281 102.008 71.9949 101.939 71.9794Z" fill="white"/>
<path d="M114.374 0C99.4723 0 85.1811 5.82993 74.6441 16.2073C64.1071 26.5846 58.1875 40.6593 58.1875 55.335C58.1777 67.15 62.0324 78.6538 69.1805 88.1424C71.008 87.3475 72.5928 86.0959 73.7776 84.5117L84.2376 71.3887C84.4557 71.1063 84.7472 70.8871 85.0815 70.7545L86.6582 70.0983L103.847 48.5986L106.357 46.6739L111.465 39.6531C111.605 39.4717 111.769 39.3098 111.953 39.172L114.174 37.5753C114.444 37.388 114.766 37.2874 115.096 37.2874C115.426 37.2874 115.748 37.388 116.017 37.5753L118.727 39.4563C120.169 40.4475 121.337 41.7783 122.124 43.3275L133.006 62.1371C133.186 62.4935 133.484 62.7789 133.85 62.9463C136.256 63.7944 138.398 65.2411 140.069 67.1457C141.379 68.5454 147.086 74.8226 155.081 84.6429C156.233 86.192 157.76 87.4326 159.523 88.2517C166.649 78.7548 170.488 67.2534 170.471 55.4444C170.486 48.1759 169.046 40.9757 166.235 34.2552C163.423 27.5347 159.295 21.4256 154.085 16.2768C148.876 11.128 142.688 7.04052 135.874 4.24769C129.06 1.45487 121.754 0.0114776 114.374 0ZM73.3334 58.397L69.6913 57.216L67.4705 60.278V56.4942L63.8284 55.335L67.4705 54.1758V50.3046L69.6913 53.3666L73.3334 52.2074L71.1126 55.2475L73.3334 58.397ZM72.4895 70.7326L71.2903 74.3195L70.1132 70.7326H66.1824L69.2693 68.5454L68.0923 64.9585L71.1792 67.1457L74.2883 64.9585L73.0891 68.5454L76.1982 70.7326H72.4895ZM73.2002 42.1684L74.3994 45.7553L71.2903 43.5681L68.2034 45.7553L69.3804 42.1684L66.2935 39.9812H69.9578L71.1348 36.3943L72.334 39.9812H76.1538L73.2002 42.1684ZM79.3518 34.054L77.131 30.992L73.4889 32.1731L75.7097 29.111L73.4889 26.0709L77.131 27.2301L79.3518 24.1681V27.9518L82.9939 29.111L79.3518 30.2702V34.054ZM88.9457 20.9311L87.7464 24.518L86.5694 20.9311H82.7496L85.8365 18.7439L84.6595 15.157L87.7464 17.3441L90.8556 15.157L89.6563 18.7439L92.7654 20.9311H88.9457ZM101.005 14.8727L98.7838 17.9347V14.1509L95.1417 12.9917L98.7838 11.8325V8.04872L101.005 11.1108L104.647 9.95156L102.426 12.9917L104.647 16.0537L101.005 14.8727ZM116.284 11.417L117.483 15.0039L114.374 12.8167L111.287 15.0039L112.464 11.417L109.355 9.2298H113.197L114.374 5.64286L115.551 9.2298H119.393L116.284 11.417ZM130.008 14.1509V17.9347L127.788 14.8727L124.145 16.0537L126.366 12.9917L124.145 9.95156L127.699 10.9358L129.919 7.87377V11.6575L133.562 12.8167L130.008 14.1509ZM155.414 52.3824L159.056 53.5415L161.277 50.4795V54.2633L164.919 55.4225L161.277 56.5817V60.3655L159.056 57.3035L155.414 58.4845L157.635 55.4225L155.414 52.3824ZM141.001 24.518L139.824 20.9311H135.982L139.091 18.7439L137.914 15.157L141.001 17.3441L144.11 15.157L142.911 18.7439L146.02 20.9311H142.178L141.001 24.518ZM149.396 34.1415V30.3577L145.754 29.1985L149.396 28.0393V24.2555L151.617 27.3176L155.259 26.1584L153.038 29.1985L155.259 32.2605L151.617 31.0795L149.396 34.1415ZM156.28 40.0249L157.457 36.438L158.634 40.0249H162.476L159.367 42.2121L160.567 45.799L157.457 43.6119L154.371 45.799L155.548 42.2121L152.438 40.0249H156.28ZM158.634 70.8201L157.457 74.407L156.28 70.8201H152.438L155.548 68.6329L154.371 65.046L157.457 67.2332L160.567 65.046L159.367 68.6329L162.476 70.8201H158.634Z" fill="white"/>
<path d="M134.63 87.3113C134.914 86.7861 135.062 86.2002 135.062 85.6053C135.062 85.0103 134.914 84.4245 134.63 83.8993L132.142 77.3378C131.787 76.5067 132.542 76.0037 133.031 76.5505C135.121 78.9385 137.05 81.4591 138.805 84.0962L141.137 87.8799C143.113 88.0112 148.621 88.1643 153.929 88.1643C153.392 87.6387 152.895 87.0759 152.441 86.4801C143.402 75.5444 137.672 69.311 137.628 69.2454C136.54 67.9328 135.135 66.9101 133.542 66.2708L132.898 65.9865V67.6487C132.898 67.8893 132.631 67.9987 132.498 67.6487L119.173 44.6617C118.619 43.579 117.803 42.6475 116.797 41.9497L115.486 41.0529L109.157 55.4444C109.385 55.4489 109.608 55.5079 109.807 55.6163C110.006 55.7248 110.175 55.8795 110.3 56.0669C110.424 56.2544 110.501 56.469 110.522 56.6921C110.544 56.9152 110.51 57.1401 110.423 57.3472L104.56 70.6889H109.934C112.015 70.6854 114.075 71.0868 115.997 71.87L117.419 72.4386C117.419 72.4386 113.132 81.1872 113.132 85.5615C113.138 86.3973 113.258 87.2285 113.488 88.033H123.348L122.882 85.2991C126.756 86.186 130.679 86.8578 134.63 87.3113Z" fill="white"/>
<path d="M58.5872 101.353C58.5872 92.4513 48.9933 88.23 37.6006 88.23C25.4084 88.23 14.2156 93.5448 10.1071 101.79C8.97365 103.993 8.38755 106.429 8.39704 108.899C8.33843 111.027 8.93451 113.124 10.1071 114.913C11.2039 116.344 12.651 117.477 14.3132 118.208C15.9754 118.938 17.7984 119.242 19.6121 119.091C25.2752 119.091 29.7612 116.029 29.7612 110.714C29.7663 110.502 29.7247 110.291 29.6392 110.097C29.5537 109.902 29.4263 109.728 29.2658 109.587C29.1053 109.445 28.9156 109.34 28.7097 109.278C28.5039 109.216 28.2867 109.198 28.0734 109.227C26.652 109.227 26.2745 110.211 26.3189 110.714C26.4588 111.662 26.3862 112.629 26.106 113.547C25.8258 114.464 25.345 115.311 24.6973 116.026C24.0496 116.741 23.2507 117.307 22.3568 117.686C21.463 118.064 20.4958 118.245 19.5233 118.216C14.5043 118.216 12.4167 114.017 12.4167 109.467C12.4167 100.259 19.4566 94.1572 26.7853 91.5108C30.2151 90.2499 33.8509 89.6198 37.5118 89.6517C45.7954 89.6517 52.591 92.8012 52.591 101.222C52.4802 104.676 51.076 107.967 48.6488 110.462C46.2216 112.958 42.9429 114.481 39.4439 114.738L39.7326 113.798C40.9816 108.513 43.0729 103.456 45.9286 98.8159C46.1063 98.5753 46.395 98.1597 46.7281 97.7442L46.3062 97.263C45.6793 97.631 45.0783 98.0402 44.5073 98.4878C30.7605 109.052 30.3386 138.753 12.0392 138.753C11.4081 138.761 10.7773 138.724 10.1515 138.644C8.5122 138.494 6.99415 137.729 5.9112 136.508C4.82826 135.287 4.26323 133.702 4.33296 132.083C4.33296 131.383 4.57725 130.442 4.57725 129.895C4.58315 129.657 4.54131 129.42 4.45409 129.197C4.36687 128.975 4.236 128.771 4.06895 128.599C3.9019 128.426 3.70194 128.288 3.4805 128.191C3.25907 128.095 3.02049 128.042 2.7784 128.036H2.55633C0.935141 128.036 0.335517 129.327 0.224476 131.142C0.0912282 136.369 4.02206 139.431 10.1071 140C10.7733 140 11.4395 140 12.1502 140C26.4522 140 35.2021 129.349 38.9331 116.444C40.8211 116.214 42.6859 115.826 44.5073 115.285C51.1253 113.448 58.5872 109.074 58.5872 101.353Z" fill="white"/>
<path d="M194.656 104.459H189.637L188.504 107.061L186.528 111.436H184.307L183.597 112.901H186.017L183.086 119.309C180.998 123.684 177.711 128.211 175.846 128.211C175.424 128.211 175.157 128.058 175.157 127.642C175.235 126.963 175.439 126.303 175.757 125.696C176.334 124.34 177.312 122.35 177.978 120.906C179.247 118.743 180.162 116.395 180.687 113.951C180.709 113.553 180.642 113.155 180.493 112.785C180.343 112.414 180.113 112.081 179.82 111.806C179.526 111.532 179.176 111.323 178.793 111.195C178.41 111.067 178.003 111.022 177.6 111.064C176.373 111.171 175.179 111.52 174.092 112.091C173.005 112.663 172.045 113.444 171.271 114.388L172.515 111.436H167.673L163.831 120.184C162.277 123.224 159.123 128.299 157.169 128.299C156.747 128.299 156.569 128.058 156.569 127.642C156.613 127.273 156.71 126.913 156.858 126.571C157.036 126.199 159.345 120.884 159.345 120.884L163.52 111.436H158.413L154.349 120.622C153.105 123.487 149.907 128.299 147.864 128.299C147.779 128.308 147.693 128.3 147.612 128.276C147.53 128.253 147.454 128.213 147.388 128.16C147.322 128.107 147.267 128.042 147.227 127.968C147.186 127.894 147.161 127.813 147.153 127.73V127.555C147.268 126.84 147.492 126.147 147.819 125.499L150.04 120.884L154.482 111.436H149.418L148.419 113.623C148.106 114.458 147.566 115.192 146.856 115.744C146.147 116.296 145.297 116.644 144.399 116.75C144.082 116.793 143.759 116.745 143.468 116.614C143.177 116.482 142.93 116.271 142.756 116.007C142.752 115.335 142.607 114.67 142.331 114.056C142.055 113.441 141.654 112.888 141.152 112.433C140.65 111.978 140.058 111.629 139.413 111.408C138.768 111.188 138.084 111.1 137.404 111.151C135.536 111.2 133.712 111.723 132.109 112.67C130.506 113.616 129.178 114.954 128.254 116.554C126.962 118.602 125.947 120.808 125.234 123.115C123.435 126.046 121.547 128.32 120.059 128.32C119.682 128.32 119.415 128.102 119.415 127.599C119.557 126.905 119.78 126.229 120.082 125.586L123.391 118.653C124.229 117.12 124.757 115.442 124.945 113.71C124.956 113.358 124.891 113.008 124.754 112.682C124.617 112.357 124.412 112.063 124.152 111.821C123.892 111.58 123.583 111.395 123.245 111.279C122.907 111.164 122.548 111.12 122.191 111.151C120.831 111.245 119.505 111.611 118.295 112.228C117.084 112.845 116.014 113.699 115.151 114.738C115.196 114.382 115.196 114.022 115.151 113.666C115.21 113.321 115.184 112.967 115.075 112.634C114.966 112.301 114.777 111.998 114.525 111.752C114.272 111.505 113.963 111.322 113.624 111.218C113.285 111.113 112.925 111.09 112.575 111.151C111.297 111.261 110.058 111.637 108.94 112.256C107.822 112.874 106.85 113.72 106.09 114.738L107.423 111.523H102.826L98.9173 120.272C97.074 124.362 94.1203 128.408 92.4325 128.408C92.055 128.408 91.8107 128.189 91.8107 127.686C92.0626 126.476 92.4654 125.3 93.0099 124.187L98.1844 112.682C98.5397 111.807 96.0746 111.283 92.9433 111.283C89.6542 111.448 86.5208 112.714 84.0601 114.869C83.0784 115.899 81.837 116.654 80.4624 117.057C80.1293 117.057 79.996 116.882 79.996 116.685C79.996 115.985 81.706 113.995 81.706 112.464C81.706 111.764 81.3285 111.326 80.3735 111.326C78.1113 111.761 76.102 113.028 74.7549 114.869L76.0874 111.698H71.6458L67.7372 120.447C65.8939 124.537 62.8514 128.78 61.0748 128.78C60.6972 128.78 60.4529 128.583 60.4529 128.08C60.7121 126.803 61.1454 125.567 61.741 124.405L66.8933 112.857C67.2708 111.982 64.8057 111.457 61.6744 111.457C59.4075 111.534 57.1852 112.099 55.1634 113.112C53.1415 114.124 51.3692 115.56 49.9707 117.319C47.512 120.157 45.9659 123.652 45.5291 127.358C45.452 127.869 45.4944 128.39 45.653 128.882C45.8116 129.374 46.0822 129.824 46.4443 130.198C46.8063 130.571 47.2502 130.858 47.7421 131.037C48.2339 131.216 48.7607 131.282 49.2823 131.229C50.563 131.085 51.7966 130.668 52.8972 130.007C53.9978 129.346 54.9392 128.457 55.656 127.402C55.5753 127.726 55.516 128.055 55.4783 128.386C55.4783 130.026 56.1446 131.229 58.2099 131.229C59.4375 131.03 60.6115 130.589 61.6611 129.931C62.7107 129.273 63.6142 128.413 64.3171 127.402L62.7626 130.901H67.7372L72.5563 120.14C74.1553 116.619 75.9541 114.804 76.4427 114.804C76.9313 114.804 76.7092 114.804 76.7092 115.023C76.7092 115.241 75.9541 116.379 75.9541 117.21C75.9541 118.041 76.4427 118.828 77.7974 118.828C78.9721 118.74 80.1004 118.339 81.062 117.669C78.739 120.4 77.2934 123.75 76.9091 127.292C76.8232 127.8 76.8558 128.32 77.0045 128.814C77.1531 129.307 77.4139 129.761 77.7671 130.14C78.1202 130.52 78.5564 130.815 79.0427 131.004C79.5289 131.192 80.0524 131.27 80.5734 131.229C83.2162 131.229 85.6813 128.758 87.036 127.096C87.0123 127.482 87.0123 127.869 87.036 128.255C86.9955 128.629 87.0354 129.008 87.1531 129.367C87.2707 129.725 87.4635 130.055 87.7189 130.336C87.9743 130.616 88.2867 130.84 88.6357 130.994C88.9848 131.148 89.3629 131.228 89.7453 131.229C91.9661 131.229 93.5207 129.961 95.6083 127.446L94.0759 130.901H99.0949L103.714 120.622C105.713 116.247 108.445 113.776 109.777 113.776C109.858 113.767 109.939 113.774 110.017 113.797C110.094 113.82 110.167 113.858 110.229 113.909C110.291 113.96 110.342 114.023 110.379 114.094C110.416 114.165 110.438 114.243 110.443 114.323C110.387 114.884 110.213 115.428 109.932 115.919L103.27 130.989H108.422L113.13 120.512C115.129 116.007 117.35 113.82 119.038 113.82C119.526 113.82 119.748 114.06 119.748 114.607C119.699 115.178 119.54 115.734 119.282 116.247L114.84 125.74C114.426 126.653 114.171 127.629 114.085 128.627C114.085 130.07 114.885 131.361 117.15 131.361C120.082 131.361 122.302 129.173 124.812 125.915V126.614C124.816 127.306 124.969 127.989 125.26 128.618C125.55 129.248 125.972 129.81 126.498 130.268C127.024 130.726 127.642 131.07 128.312 131.277C128.982 131.484 129.689 131.55 130.386 131.47C135.005 131.47 138.736 128.342 140.979 123.356C141.844 121.602 142.4 119.716 142.623 117.778C143.128 118.037 143.698 118.151 144.266 118.106C145.04 118.125 145.806 117.944 146.487 117.581L145.687 119.266C144.755 121.168 143.755 123.268 142.956 125.04C142.455 126.091 142.162 127.227 142.09 128.386C142.046 128.793 142.094 129.205 142.23 129.591C142.366 129.978 142.588 130.33 142.878 130.623C143.169 130.916 143.522 131.141 143.912 131.284C144.301 131.427 144.718 131.483 145.132 131.448C146.56 131.207 147.92 130.674 149.125 129.883C150.33 129.092 151.353 128.06 152.128 126.855C151.986 127.413 151.911 127.986 151.906 128.561C151.906 130.026 152.372 131.448 154.46 131.448C156.902 131.448 158.79 129.698 160.633 127.511L159.079 130.989H164.142L168.206 121.912C170.427 116.794 172.826 113.688 174.869 113.688C175.046 113.688 175.218 113.752 175.349 113.87C175.481 113.987 175.563 114.149 175.579 114.323V114.432C175.007 116.378 174.202 118.25 173.181 120.009C172.137 122.196 171.338 123.815 170.805 125.083C170.297 126.165 169.996 127.329 169.916 128.517C169.892 128.889 169.95 129.262 170.087 129.61C170.223 129.957 170.436 130.271 170.709 130.529C170.981 130.788 171.308 130.984 171.666 131.105C172.024 131.226 172.405 131.268 172.781 131.229C175.735 131.229 178.689 128.43 180.288 126.33C179.931 127.337 179.736 128.392 179.71 129.458C179.636 130.031 179.692 130.613 179.875 131.162C180.057 131.711 180.362 132.213 180.765 132.631C181.169 133.05 181.663 133.375 182.21 133.583C182.757 133.791 183.345 133.876 183.93 133.832C185.576 133.825 187.177 133.304 188.504 132.345C190.38 130.919 191.995 129.188 193.279 127.227L192.391 126.396C191.32 128.047 189.994 129.523 188.46 130.77C187.723 131.364 186.813 131.709 185.862 131.754C184.818 131.754 184.152 131.207 184.152 129.895C184.369 127.993 184.901 126.138 185.728 124.405C185.728 124.405 187.15 121.322 188.46 118.391C189.548 115.897 190.681 113.513 190.859 113.01H194.168L194.834 111.545H191.569L194.656 104.459ZM51.7474 128.255C51.0367 128.255 50.5259 128.014 50.5259 127.096C51.1937 123.362 52.7966 119.851 55.1896 116.882C55.8978 115.726 56.8677 114.748 58.0235 114.024C59.1793 113.299 60.4896 112.847 61.852 112.704L58.6541 119.725C56.2778 124.996 53.6795 128.255 51.7474 128.255ZM83.0829 128.255C82.919 128.283 82.7506 128.274 82.5912 128.226C82.4318 128.179 82.2858 128.096 82.1649 127.983C82.044 127.871 81.9516 127.732 81.895 127.578C81.8385 127.423 81.8194 127.258 81.8393 127.096C82.4968 123.363 84.0925 119.852 86.4808 116.882C87.1889 115.726 88.1588 114.748 89.3146 114.024C90.4704 113.299 91.7807 112.847 93.1432 112.704L89.9452 119.725C87.5245 125.127 85.0594 128.255 83.0829 128.255ZM138.803 114.607C138.006 119.308 136.188 123.784 133.473 127.73C132.34 129.305 131.385 129.742 130.542 129.742C129.698 129.742 129.031 128.802 129.209 127.402C130.037 123.043 131.793 118.906 134.361 115.263C135.649 113.492 136.582 112.748 137.537 112.748C138.492 112.748 138.803 113.579 138.803 114.607Z" fill="white"/>
<path d="M216.93 111.436L221.528 100.938H216.087L211.467 111.436H199.852L197.92 115.832H209.535L204.916 126.33H210.379L214.998 115.832H226.591L228.523 111.436H216.93Z" fill="white"/>
</svg>
