<svg width="144" height="48" viewBox="0 0 144 48" fill="none" xmlns="http://www.w3.org/2000/svg">
<path fill-rule="evenodd" clip-rule="evenodd" d="M15.8331 11.5885C15.5326 11.9101 15.3599 12.405 15.3599 13.0481V35.9231C15.3599 36.5662 15.5326 37.0611 15.8443 37.3715L15.9258 37.44L28.7999 24.6226V24.3346L15.9145 11.52L15.8331 11.5885Z" fill="url(#paint0_linear_16862_259081)"/>
<path fill-rule="evenodd" clip-rule="evenodd" d="M33.094 28.8002L28.7998 24.1624V23.838L33.0954 19.2002L33.1881 19.2624L38.2687 22.3795C39.7235 23.2649 39.7235 24.7234 38.2687 25.6209L33.1881 28.738C33.1867 28.738 33.094 28.8002 33.094 28.8002Z" fill="url(#paint1_linear_16862_259081)"/>
<path fill-rule="evenodd" clip-rule="evenodd" d="M33.5999 28.4117L28.986 24L15.3599 37.0249C15.8576 37.5359 16.695 37.5938 17.6314 37.094L33.5999 28.4117Z" fill="url(#paint2_linear_16862_259081)"/>
<path fill-rule="evenodd" clip-rule="evenodd" d="M33.5999 19.587L17.6314 10.9107C16.6965 10.3994 15.8576 10.4686 15.3599 10.9799L28.9845 24.0001L33.5999 19.587Z" fill="url(#paint3_linear_16862_259081)"/>
<path opacity="0.2" fill-rule="evenodd" clip-rule="evenodd" d="M33.4906 28.8L17.6314 36.9619C16.7452 37.4234 15.9551 37.3913 15.4455 36.9726L15.3599 37.0502L15.4455 37.1157C15.9551 37.5331 16.7452 37.5666 17.6314 37.105L33.5999 28.8883L33.4906 28.8Z" fill="black"/>
<path opacity="0.12" fill-rule="evenodd" clip-rule="evenodd" d="M38.3715 25.4776L33.6001 28.6986L33.6854 28.8L38.3611 25.642C39.0305 25.1873 39.3601 24.5944 39.3601 24C39.3175 24.5437 38.9776 25.0614 38.3715 25.4776Z" fill="black"/>
<path opacity="0.25" fill-rule="evenodd" clip-rule="evenodd" d="M17.9948 11.0655L38.2736 22.6416C38.9326 23.013 39.3022 23.5002 39.3599 24.0001C39.3599 23.455 39.0015 22.9085 38.2736 22.4906L17.9948 10.9144C16.5389 10.0784 15.3599 10.7746 15.3599 12.4465V12.5976C15.3599 10.9257 16.5389 10.2408 17.9948 11.0655Z" fill="#FAFAFA"/>
<path fill-rule="evenodd" clip-rule="evenodd" d="M45.1229 23.0215C45.1229 19.3276 48.2199 16.3201 51.9046 16.3201C53.9416 16.3201 55.391 17.122 56.4847 18.1663L55.197 19.4573C54.4154 18.7216 53.3554 18.1508 51.9032 18.1508C49.2125 18.1508 47.1093 20.3226 47.1093 23.0201C47.1093 25.7176 49.2125 27.8922 51.9018 27.8922C53.6464 27.8922 54.6389 27.1904 55.2757 26.5505C55.7973 26.0276 56.1389 25.2765 56.2711 24.2462H51.9046V22.4197H58.0508C58.1155 22.7467 58.1492 23.1385 58.1492 23.5627C58.1492 24.934 57.7739 26.6351 56.5663 27.8457C55.391 29.0718 53.8924 29.7258 51.9032 29.7258C48.2171 29.7258 45.1201 26.721 45.1201 23.0243L45.1229 23.0215ZM63.1174 21.0935C60.7374 21.0935 58.7945 22.9088 58.7945 25.4075C58.7945 27.8936 60.7359 29.7215 63.1174 29.7215C65.4989 29.7215 67.4375 27.8908 67.4375 25.4061C67.4375 22.9074 65.4975 21.0921 63.1174 21.0935ZM63.1174 28.0247C61.8142 28.0247 60.6881 26.9465 60.6881 25.4089C60.6881 23.8558 61.8128 22.7932 63.1174 22.7932C64.4206 22.7932 65.5452 23.8544 65.5452 25.4089C65.5452 26.9451 64.422 28.0247 63.1174 28.0247ZM72.5434 21.0935C70.1634 21.0935 68.2233 22.9088 68.2233 25.4075C68.2233 27.8936 70.1634 29.7215 72.5434 29.7215C74.9235 29.7215 76.8635 27.8908 76.8635 25.4061C76.8635 22.9074 74.9249 21.0921 72.5434 21.0935ZM72.5434 28.0247C71.2402 28.0247 70.1142 26.9465 70.1142 25.4089C70.1142 23.8558 71.2388 22.7932 72.5434 22.7932C73.8466 22.7932 74.9727 23.8544 74.9727 25.4089C74.9727 26.9451 73.8466 28.0247 72.5434 28.0247ZM84.1119 21.3557V22.0575H84.0472C83.6241 21.5487 82.8087 21.0921 81.7825 21.0921C79.6301 21.0921 77.655 22.9891 77.655 25.4259C77.655 27.8429 79.6287 29.7244 81.7825 29.7244C82.8087 29.7244 83.6241 29.2677 84.0472 28.7449H84.1119V29.365C84.1119 31.0153 83.2318 31.899 81.8134 31.899C80.655 31.899 79.938 31.0647 79.6442 30.3642L77.9966 31.0506C78.4689 32.1935 79.7257 33.6001 81.812 33.6001C84.0275 33.6001 85.9029 32.2908 85.9029 29.1043V21.3543L84.1119 21.3557ZM81.9441 28.0247C80.6409 28.0247 79.5458 26.9282 79.5458 25.4259C79.5458 23.9066 80.6395 22.7946 81.9441 22.7946C83.2318 22.7946 84.2426 23.9052 84.2426 25.4259C84.244 26.9282 83.2333 28.0247 81.9441 28.0247ZM87.2089 16.7781H89.1011V29.4622H87.2089V16.7781ZM94.2872 28.0247C93.3256 28.0247 92.6396 27.5822 92.2024 26.7182L97.9578 24.3294L97.7596 23.8389C97.4025 22.8763 96.3088 21.0935 94.0749 21.0935C91.8579 21.0935 90.0149 22.8425 90.0149 25.4089C90.0149 27.826 91.8411 29.723 94.2872 29.723C96.261 29.723 97.4025 28.5151 97.8748 27.8105L96.4072 26.831C95.9165 27.5512 95.2474 28.0261 94.2872 28.0247ZM94.1396 22.7608C94.8889 22.7608 95.5243 23.1371 95.7366 23.6754L91.8875 25.2779C91.8397 23.6106 93.1766 22.7608 94.1396 22.7608ZM106.261 16.7781H101.737V29.4622H103.625V24.6578H106.262C108.355 24.6578 110.413 23.1385 110.413 20.7172C110.413 18.3002 108.357 16.7795 106.265 16.7795L106.261 16.7781ZM106.31 22.8919H103.625V18.5426H106.31C107.721 18.5426 108.525 19.7166 108.525 20.7172C108.525 21.701 107.721 22.8919 106.31 22.8919ZM113.342 29.4622V16.7781H111.454V29.4622H113.342ZM121.823 29.4397V24.5774C121.823 22.3253 120.144 21.0696 117.978 21.0696C116.613 21.0696 115.197 21.6742 114.611 23.0116L116.287 23.7121C116.645 23.0116 117.312 22.7819 118.013 22.7819C118.989 22.7819 119.981 23.3696 119.997 24.4154V24.5464C119.655 24.3505 118.924 24.056 118.027 24.056C116.221 24.056 114.382 25.051 114.382 26.9113C114.382 28.6096 115.864 29.7018 117.524 29.7018C118.795 29.7018 119.494 29.131 119.932 28.463H119.997V29.4425H121.822L121.823 29.4397ZM117.753 28.0219C117.135 28.0219 116.271 27.7118 116.271 26.9465C116.271 25.967 117.347 25.5893 118.275 25.5893C119.106 25.5893 119.495 25.7683 120.001 26.0136C119.856 27.1523 118.896 28.0078 117.753 28.0219ZM128.463 21.3472L126.298 26.8451H126.233L123.987 21.3472H121.952L125.321 29.0338L123.399 33.3083H125.368L130.56 21.3472H128.463Z" fill="#FAFAFA"/>
<rect x="0.5" y="0.5" width="143" height="47" rx="3.5" stroke="#FAFAFA"/>
<defs>
<linearGradient id="paint0_linear_16862_259081" x1="27.6363" y1="12.8094" x2="7.04711" y2="18.3171" gradientUnits="userSpaceOnUse">
<stop stop-color="#00A0FF"/>
<stop offset="0.007" stop-color="#00A1FF"/>
<stop offset="0.26" stop-color="#00BEFF"/>
<stop offset="0.512" stop-color="#00D2FF"/>
<stop offset="0.76" stop-color="#00DFFF"/>
<stop offset="1" stop-color="#00E3FF"/>
</linearGradient>
<linearGradient id="paint1_linear_16862_259081" x1="40.1617" y1="23.9963" x2="15.0172" y2="23.9963" gradientUnits="userSpaceOnUse">
<stop stop-color="#FFE000"/>
<stop offset="0.409" stop-color="#FFBD00"/>
<stop offset="0.775" stop-color="#FFA500"/>
<stop offset="1" stop-color="#FF9C00"/>
</linearGradient>
<linearGradient id="paint2_linear_16862_259081" x1="31.0932" y1="26.3959" x2="14.8008" y2="55.0503" gradientUnits="userSpaceOnUse">
<stop stop-color="#FF3A44"/>
<stop offset="1" stop-color="#C31162"/>
</linearGradient>
<linearGradient id="paint3_linear_16862_259081" x1="11.9267" y1="3.27111" x2="19.2034" y2="16.063" gradientUnits="userSpaceOnUse">
<stop stop-color="#32A071"/>
<stop offset="0.069" stop-color="#2DA771"/>
<stop offset="0.476" stop-color="#15CF74"/>
<stop offset="0.801" stop-color="#06E775"/>
<stop offset="1" stop-color="#00F076"/>
</linearGradient>
</defs>
</svg>
